<?xml version="1.0" encoding="utf-8"?>
<!-- Generator: Adobe Illustrator 19.0.0, SVG Export Plug-In . SVG Version: 6.00 Build 0)  -->
<svg version="1.1" id="Layer_1" xmlns="http://www.w3.org/2000/svg" xmlns:xlink="http://www.w3.org/1999/xlink" x="0px" y="0px"
	 width="1400px" height="980px" viewBox="0 0 1400 980" enable-background="new 0 0 1400 980" xml:space="preserve">
<g id="XMLID_75_">
	<g id="XMLID_74_">
		<g id="XMLID_3_">
			<path id="XMLID_136_" fill="#414042" d="M129.9,164.4l5.1,20.9c0,0.1,0,0.1,0,0.2l15.4,63.1c0.4,1.8,2.1,3.1,4,3.1h79.4
				c1.9,0,3.5-1.3,3.9-3.1l16.4-63.2c0.3-1.2,0-2.5-0.7-3.5c-0.8-1-2-1.6-3.2-1.6h-108l-5.1-20.9c-0.4-1.8-2.1-3.1-4-3.1h-22.8
				c-2.3,0-4.1,1.8-4.1,4.1c0,2.3,1.8,4.1,4.1,4.1H129.9z M244.9,188.4l-14.3,55.1h-73l-13.4-55.1H244.9z"/>
			<path id="XMLID_133_" fill="#414042" d="M235.3,270.8c0-7.9-6.4-14.3-14.3-14.3c-7.9,0-14.3,6.4-14.3,14.3
				c0,7.9,6.4,14.3,14.3,14.3C228.8,285.2,235.3,278.8,235.3,270.8z M214.8,270.8c0-3.4,2.8-6.2,6.2-6.2c3.4,0,6.2,2.8,6.2,6.2
				c0,3.4-2.8,6.2-6.2,6.2C217.5,277,214.8,274.3,214.8,270.8z"/>
			<path id="XMLID_72_" fill="#414042" d="M181.5,270.8c0-7.9-6.4-14.3-14.3-14.3c-7.9,0-14.3,6.4-14.3,14.3
				c0,7.9,6.4,14.3,14.3,14.3C175.1,285.2,181.5,278.8,181.5,270.8z M161,270.8c0-3.4,2.8-6.2,6.2-6.2c3.4,0,6.2,2.8,6.2,6.2
				c0,3.4-2.8,6.2-6.2,6.2C163.7,277,161,274.3,161,270.8z"/>
		</g>
		<g id="XMLID_79_">
			<path id="XMLID_137_" fill="#414042" d="M716.8,209.2c0-13.7-11.1-24.8-24.8-24.8c-13.7,0-24.8,11.1-24.8,24.8
				s11.1,24.8,24.8,24.8C705.7,234,716.8,222.9,716.8,209.2z M675.4,209.2c0-9.2,7.5-16.6,16.6-16.6s16.6,7.5,16.6,16.6
				s-7.5,16.6-16.6,16.6S675.4,218.4,675.4,209.2z"/>
			<path id="XMLID_154_" fill="#414042" d="M653.7,244.7h76.8h22c2.3,0,4.1-1.8,4.1-4.1v-22v-18.9v-22c0-2.3-1.8-4.1-4.1-4.1h-22
				h-76.8h-22c-2.3,0-4.1,1.8-4.1,4.1v22v18.9v22c0,2.3,1.8,4.1,4.1,4.1H653.7z M748.3,236.6H735c1.5-6.6,6.7-11.8,13.3-13.3V236.6z
				 M748.3,181.9v13.3c-6.6-1.5-11.8-6.7-13.3-13.3H748.3z M635.8,181.9h13.3c-1.5,6.6-6.7,11.8-13.3,13.3V181.9z M635.8,203.5
				c11.1-1.8,19.9-10.5,21.6-21.6h69.3c1.8,11.1,10.5,19.9,21.6,21.6v11.4c-11.1,1.8-19.9,10.5-21.6,21.6h-69.3
				c-1.8-11.1-10.5-19.9-21.6-21.6V203.5z M635.8,223.2c6.6,1.5,11.8,6.7,13.3,13.3h-13.3V223.2z"/>
		</g>
		<g id="XMLID_4_">
			<path id="XMLID_41_" fill="#414042" d="M989,235.7v-4.1c0-0.8-0.6-1.4-1.4-1.4s-1.4,0.6-1.4,1.4v4.1c0,0.8,0.6,1.4,1.4,1.4
				S989,236.5,989,235.7z"/>
			<path id="XMLID_17_" fill="#414042" d="M989,246v-4.1c0-0.8-0.6-1.4-1.4-1.4s-1.4,0.6-1.4,1.4v4.1c0,0.8,0.6,1.4,1.4,1.4
				S989,246.8,989,246z"/>
			<path id="XMLID_25_" fill="#414042" d="M987.7,255.4c0.8,0,1.4-0.6,1.4-1.4v-1.8c0-0.8-0.6-1.4-1.4-1.4s-1.4,0.6-1.4,1.4v0.5
				h-0.5c-0.8,0-1.4,0.6-1.4,1.4c0,0.8,0.6,1.4,1.4,1.4H987.7z"/>
			<path id="XMLID_40_" fill="#414042" d="M944.9,255.4c0.8,0,1.4-0.6,1.4-1.4c0-0.8-0.6-1.4-1.4-1.4h-3.6c-0.8,0-1.4,0.6-1.4,1.4
				c0,0.8,0.6,1.4,1.4,1.4H944.9z"/>
			<path id="XMLID_43_" fill="#414042" d="M953.8,255.4c0.8,0,1.4-0.6,1.4-1.4c0-0.8-0.6-1.4-1.4-1.4h-3.6c-0.8,0-1.4,0.6-1.4,1.4
				c0,0.8,0.6,1.4,1.4,1.4H953.8z"/>
			<path id="XMLID_83_" fill="#414042" d="M927.1,255.4c0.8,0,1.4-0.6,1.4-1.4c0-0.8-0.6-1.4-1.4-1.4h-3.6c-0.8,0-1.4,0.6-1.4,1.4
				c0,0.8,0.6,1.4,1.4,1.4H927.1z"/>
			<path id="XMLID_84_" fill="#414042" d="M918.2,255.4c0.8,0,1.4-0.6,1.4-1.4c0-0.8-0.6-1.4-1.4-1.4h-3.6c-0.8,0-1.4,0.6-1.4,1.4
				c0,0.8,0.6,1.4,1.4,1.4H918.2z"/>
			<path id="XMLID_86_" fill="#414042" d="M936,255.4c0.8,0,1.4-0.6,1.4-1.4c0-0.8-0.6-1.4-1.4-1.4h-3.6c-0.8,0-1.4,0.6-1.4,1.4
				c0,0.8,0.6,1.4,1.4,1.4H936z"/>
			<path id="XMLID_100_" fill="#414042" d="M962.7,255.4c0.8,0,1.4-0.6,1.4-1.4c0-0.8-0.6-1.4-1.4-1.4h-3.6c-0.8,0-1.4,0.6-1.4,1.4
				c0,0.8,0.6,1.4,1.4,1.4H962.7z"/>
			<path id="XMLID_138_" fill="#414042" d="M980.5,255.4c0.8,0,1.4-0.6,1.4-1.4c0-0.8-0.6-1.4-1.4-1.4H977c-0.8,0-1.4,0.6-1.4,1.4
				c0,0.8,0.6,1.4,1.4,1.4H980.5z"/>
			<path id="XMLID_149_" fill="#414042" d="M971.6,255.4c0.8,0,1.4-0.6,1.4-1.4c0-0.8-0.6-1.4-1.4-1.4h-3.6c-0.8,0-1.4,0.6-1.4,1.4
				c0,0.8,0.6,1.4,1.4,1.4H971.6z"/>
			<path id="XMLID_150_" fill="#414042" d="M907.5,250.8c-0.8,0-1.4,0.6-1.4,1.4v1.8c0,0.8,0.6,1.4,1.4,1.4h1.8
				c0.8,0,1.4-0.6,1.4-1.4c0-0.8-0.6-1.4-1.4-1.4h-0.5v-0.5C908.8,251.4,908.2,250.8,907.5,250.8z"/>
			<path id="XMLID_151_" fill="#414042" d="M908.8,218.9v-3.7c0-0.8-0.6-1.4-1.4-1.4s-1.4,0.6-1.4,1.4v3.7c0,0.8,0.6,1.4,1.4,1.4
				S908.8,219.6,908.8,218.9z"/>
			<path id="XMLID_159_" fill="#414042" d="M908.8,246.6v-3.7c0-0.8-0.6-1.4-1.4-1.4s-1.4,0.6-1.4,1.4v3.7c0,0.8,0.6,1.4,1.4,1.4
				S908.8,247.4,908.8,246.6z"/>
			<path id="XMLID_160_" fill="#414042" d="M908.8,237.4v-3.7c0-0.8-0.6-1.4-1.4-1.4s-1.4,0.6-1.4,1.4v3.7c0,0.8,0.6,1.4,1.4,1.4
				S908.8,238.1,908.8,237.4z"/>
			<path id="XMLID_161_" fill="#414042" d="M908.8,191.1v-3.7c0-0.8-0.6-1.4-1.4-1.4s-1.4,0.6-1.4,1.4v3.7c0,0.8,0.6,1.4,1.4,1.4
				S908.8,191.9,908.8,191.1z"/>
			<path id="XMLID_162_" fill="#414042" d="M908.8,228.1v-3.7c0-0.8-0.6-1.4-1.4-1.4s-1.4,0.6-1.4,1.4v3.7c0,0.8,0.6,1.4,1.4,1.4
				S908.8,228.9,908.8,228.1z"/>
			<path id="XMLID_163_" fill="#414042" d="M908.8,200.4v-3.7c0-0.8-0.6-1.4-1.4-1.4s-1.4,0.6-1.4,1.4v3.7c0,0.8,0.6,1.4,1.4,1.4
				S908.8,201.1,908.8,200.4z"/>
			<path id="XMLID_164_" fill="#414042" d="M908.8,209.6v-3.7c0-0.8-0.6-1.4-1.4-1.4s-1.4,0.6-1.4,1.4v3.7c0,0.8,0.6,1.4,1.4,1.4
				S908.8,210.4,908.8,209.6z"/>
			<path id="XMLID_166_" fill="#414042" d="M908.8,181.9v-0.5h0.5c0.8,0,1.4-0.6,1.4-1.4s-0.6-1.4-1.4-1.4h-1.8
				c-0.8,0-1.4,0.6-1.4,1.4v1.8c0,0.8,0.6,1.4,1.4,1.4S908.8,182.6,908.8,181.9z"/>
			<path id="XMLID_167_" fill="#414042" d="M971.6,181.4c0.8,0,1.4-0.6,1.4-1.4s-0.6-1.4-1.4-1.4h-3.6c-0.8,0-1.4,0.6-1.4,1.4
				s0.6,1.4,1.4,1.4H971.6z"/>
			<path id="XMLID_179_" fill="#414042" d="M953.8,181.4c0.8,0,1.4-0.6,1.4-1.4s-0.6-1.4-1.4-1.4h-3.6c-0.8,0-1.4,0.6-1.4,1.4
				s0.6,1.4,1.4,1.4H953.8z"/>
			<path id="XMLID_181_" fill="#414042" d="M980.5,181.4c0.8,0,1.4-0.6,1.4-1.4s-0.6-1.4-1.4-1.4H977c-0.8,0-1.4,0.6-1.4,1.4
				s0.6,1.4,1.4,1.4H980.5z"/>
			<path id="XMLID_182_" fill="#414042" d="M962.7,181.4c0.8,0,1.4-0.6,1.4-1.4s-0.6-1.4-1.4-1.4h-3.6c-0.8,0-1.4,0.6-1.4,1.4
				s0.6,1.4,1.4,1.4H962.7z"/>
			<path id="XMLID_183_" fill="#414042" d="M944.9,181.4c0.8,0,1.4-0.6,1.4-1.4s-0.6-1.4-1.4-1.4h-3.6c-0.8,0-1.4,0.6-1.4,1.4
				s0.6,1.4,1.4,1.4H944.9z"/>
			<path id="XMLID_185_" fill="#414042" d="M918.2,181.4c0.8,0,1.4-0.6,1.4-1.4s-0.6-1.4-1.4-1.4h-3.6c-0.8,0-1.4,0.6-1.4,1.4
				s0.6,1.4,1.4,1.4H918.2z"/>
			<path id="XMLID_186_" fill="#414042" d="M927.1,181.4c0.8,0,1.4-0.6,1.4-1.4s-0.6-1.4-1.4-1.4h-3.6c-0.8,0-1.4,0.6-1.4,1.4
				s0.6,1.4,1.4,1.4H927.1z"/>
			<path id="XMLID_187_" fill="#414042" d="M936,181.4c0.8,0,1.4-0.6,1.4-1.4s-0.6-1.4-1.4-1.4h-3.6c-0.8,0-1.4,0.6-1.4,1.4
				s0.6,1.4,1.4,1.4H936z"/>
			<path id="XMLID_188_" fill="#414042" d="M987.7,183.2c0.8,0,1.4-0.6,1.4-1.4v-1.8c0-0.8-0.6-1.4-1.4-1.4h-1.8
				c-0.8,0-1.4,0.6-1.4,1.4s0.6,1.4,1.4,1.4h0.5v0.5C986.3,182.6,986.9,183.2,987.7,183.2z"/>
			<path id="XMLID_189_" fill="#414042" d="M989,191.1v-3.7c0-0.8-0.6-1.4-1.4-1.4s-1.4,0.6-1.4,1.4v3.7c0,0.8,0.6,1.4,1.4,1.4
				S989,191.8,989,191.1z"/>
			<path id="XMLID_198_" fill="#414042" d="M990.9,167.4h-86.7c-5.6,0-10.1,4.5-10.1,10.1v79c0,5.6,4.5,10.1,10.1,10.1h86.7
				c5.6,0,10.1-4.5,10.1-10.1v-29.8h10c2.3,0,4.1-1.8,4.1-4.1v-17.2c0-2.3-1.8-4.1-4.1-4.1h-10v-23.9
				C1001.1,172,996.5,167.4,990.9,167.4z M992.9,256.5c0,1.1-0.9,2-2,2h-86.7c-1.1,0-2-0.9-2-2v-79c0-1.1,0.9-2,2-2h86.7
				c1.1,0,2,0.9,2,2v23.9h-4.4c0.3-0.2,0.6-0.6,0.6-1.1v-3.7c0-0.8-0.6-1.4-1.4-1.4s-1.4,0.6-1.4,1.4v3.7c0,0.4,0.2,0.8,0.6,1.1h-3
				c-7,0-12.7,5.7-12.7,12.7s5.7,12.7,12.7,12.7h3.5c0.1,0,0.2,0.1,0.3,0.1s0.2,0,0.3-0.1h4.9V256.5z M1007,209.6v9.1h-23.1
				c-2.5,0-4.5-2-4.5-4.5s2-4.5,4.5-4.5H1007z"/>
			<circle id="XMLID_190_" fill="#414042" cx="986.7" cy="214.1" r="2.3"/>
		</g>
		<g id="XMLID_7_">
			<path id="XMLID_203_" fill="#414042" d="M1166.1,201.1c-6,3.5-10,10-10,17.5v31.8c0,11.2,9.1,20.2,20.2,20.2h81.8
				c11.2,0,20.2-9.1,20.2-20.2v-31.8c0-7.4-4-14-10-17.5c-0.1-0.2-0.3-0.3-0.4-0.5l-41.3-39c0.2-0.6,0.2-1.2,0.2-1.9
				c0-4.3-3.5-7.7-7.7-7.7c-4.3,0-7.7,3.5-7.7,7.7c0,0.3,0,0.6,0.1,0.9l-44.8,39.9C1166.4,200.7,1166.2,200.9,1166.1,201.1z
				 M1216.5,166.9c0.8,0.3,1.6,0.4,2.5,0.4c0.5,0,1.1-0.1,1.6-0.2l32.9,31.1h-72.2L1216.5,166.9z M1176.3,206.5h81.8
				c6.7,0,12.1,5.4,12.1,12.1v31.8c0,6.7-5.4,12.1-12.1,12.1h-81.8c-6.7,0-12.1-5.4-12.1-12.1v-31.8
				C1164.2,211.9,1169.6,206.5,1176.3,206.5z"/>
			<path id="XMLID_206_" fill="#414042" d="M1194.5,241.7v-14.6c0-4.5-2.4-7.1-6.7-7.1c-4.3,0-6.7,2.6-6.7,7.1v14.6
				c0,4.5,2.4,7.1,6.7,7.1C1192.2,248.8,1194.5,246.2,1194.5,241.7z M1185.5,242v-15.1c0-2,0.9-2.8,2.3-2.8c1.4,0,2.3,0.8,2.3,2.8
				V242c0,2-0.9,2.8-2.3,2.8C1186.4,244.8,1185.5,244,1185.5,242z"/>
			<path id="XMLID_207_" fill="#414042" d="M1207.9,237.9c4.4,0,6.6-2.4,6.6-6.9v-3.6c0-4.5-2.2-6.9-6.6-6.9h-6.5v28h4.4v-10.5
				H1207.9z M1205.8,224.4h2.1c1.4,0,2.2,0.6,2.2,2.6v4.2c0,2-0.8,2.6-2.2,2.6h-2.1V224.4z"/>
			<polygon id="XMLID_169_" fill="#414042" points="1232.5,224.4 1232.5,220.4 1220.5,220.4 1220.5,248.5 1232.5,248.5 
				1232.5,244.5 1224.9,244.5 1224.9,236.2 1231,236.2 1231,232.2 1224.9,232.2 1224.9,224.4 			"/>
			<polygon id="XMLID_26_" fill="#414042" points="1243.3,228.2 1248.7,248.5 1253.2,248.5 1253.2,220.4 1249.3,220.4 1249.3,237.2 
				1249.2,237.2 1244.7,220.4 1239.2,220.4 1239.2,248.5 1243.2,248.5 1243.2,228.2 			"/>
		</g>
		<path id="XMLID_173_" fill="#414042" d="M158.1,387c-1.9-1.1-4.4-0.5-5.6,1.5l-18.1,30.8h-25.5c-1.3,0-2.5,0.6-3.3,1.6
			c-0.8,1-1,2.3-0.7,3.6l15.5,54.4c0.5,1.8,2.1,3,3.9,3h82.4c1.8,0,3.4-1.2,3.9-3l15.5-54.4c0.3-1.2,0.1-2.6-0.7-3.6
			c-0.8-1-2-1.6-3.3-1.6h-25.5l-18.1-30.8c-1.1-1.9-3.6-2.6-5.6-1.5c-1.9,1.1-2.6,3.6-1.5,5.6l15.7,26.7h-43.3l15.7-26.7
			C160.7,390.6,160.1,388.1,158.1,387z M192,427.4l7.2,12.3c0.8,1.3,2.1,2,3.5,2c0.7,0,1.4-0.2,2.1-0.6c1.9-1.1,2.6-3.6,1.5-5.6
			l-4.8-8.2h15.4l-13.1,46.2h-76.2l-13.1-46.2h15.4l-4.8,8.2c-1.1,1.9-0.5,4.4,1.5,5.6c0.6,0.4,1.4,0.6,2.1,0.6c1.4,0,2.8-0.7,3.5-2
			l7.2-12.3H192z"/>
		<g id="XMLID_27_">
			<path id="XMLID_208_" fill="#414042" d="M1166.1,415.2c-6,3.5-10,10-10,17.5v31.8c0,11.2,9.1,20.2,20.2,20.2h81.8
				c11.2,0,20.2-9.1,20.2-20.2v-31.8c0-7.4-4-14-10-17.5c-0.1-0.2-0.3-0.3-0.4-0.5l-41.3-39c0.2-0.6,0.2-1.2,0.2-1.9
				c0-4.3-3.5-7.7-7.7-7.7c-4.3,0-7.7,3.5-7.7,7.7c0,0.3,0,0.6,0.1,0.9l-44.8,39.9C1166.4,414.8,1166.2,415,1166.1,415.2z
				 M1216.5,381c0.8,0.3,1.6,0.4,2.5,0.4c0.5,0,1.1-0.1,1.6-0.2l32.9,31.1h-72.2L1216.5,381z M1176.3,420.6h81.8
				c6.7,0,12.1,5.4,12.1,12.1v31.8c0,6.7-5.4,12.1-12.1,12.1h-81.8c-6.7,0-12.1-5.4-12.1-12.1v-31.8
				C1164.2,426,1169.6,420.6,1176.3,420.6z"/>
			<path id="XMLID_165_" fill="#414042" d="M1191.9,444.8v-2.2c0-3.7-1.8-5.8-5.4-5.8s-5.4,2.1-5.4,5.8v11.9c0,3.7,1.8,5.8,5.4,5.8
				s5.4-2.1,5.4-5.8v-3h-3.4v3.3c0,1.6-0.7,2.2-1.9,2.2c-1.1,0-1.9-0.6-1.9-2.2v-12.4c0-1.6,0.7-2.3,1.9-2.3c1.1,0,1.9,0.6,1.9,2.3
				v2.5H1191.9z"/>
			<polygon id="XMLID_16_" fill="#414042" points="1197.3,437.1 1197.3,460 1206.8,460 1206.8,456.7 1200.9,456.7 1200.9,437.1 			
				"/>
			<path id="XMLID_176_" fill="#414042" d="M1222.3,454.5v-11.9c0-3.7-1.9-5.8-5.5-5.8c-3.5,0-5.5,2.1-5.5,5.8v11.9
				c0,3.7,1.9,5.8,5.5,5.8C1220.4,460.2,1222.3,458.2,1222.3,454.5z M1215,454.7v-12.4c0-1.6,0.7-2.3,1.9-2.3c1.1,0,1.9,0.6,1.9,2.3
				v12.4c0,1.6-0.7,2.3-1.9,2.3C1215.7,457,1215,456.4,1215,454.7z"/>
			<path id="XMLID_28_" fill="#414042" d="M1227.3,453.1v1.4c0,3.7,1.8,5.8,5.4,5.8c3.5,0,5.4-2.1,5.4-5.8c0-2.6-0.9-4.5-4-7.2
				c-2.4-2.1-3.1-3.3-3.1-5c0-1.6,0.7-2.3,1.8-2.3c1.1,0,1.8,0.6,1.8,2.3v0.9h3.4v-0.7c0-3.7-1.8-5.8-5.3-5.8
				c-3.5,0-5.3,2.1-5.3,5.8c0,2.6,0.9,4.5,4,7.2c2.4,2.1,3.1,3.3,3.1,5c0,1.6-0.7,2.2-1.9,2.2c-1.1,0-1.9-0.6-1.9-2.2v-1.6H1227.3z"
				/>
			<polygon id="XMLID_37_" fill="#414042" points="1253.2,440.4 1253.2,437.1 1243.4,437.1 1243.4,460 1253.2,460 1253.2,456.7 
				1247,456.7 1247,450 1251.9,450 1251.9,446.7 1247,446.7 1247,440.4 			"/>
		</g>
		<path id="XMLID_211_" fill="#414042" d="M434.9,150.8h-1.1c-15.4,0-28,15.2-28,33.8v10.9h-11.3c-2,0-3.7,1.5-3.9,3.5l-8.9,89.2
			c-0.1,1.1,0.3,2.2,1,3s1.8,1.3,2.9,1.3h97.5c1.1,0,2.2-0.5,2.9-1.3c0.7-0.8,1.1-1.9,1-3l-8.4-89.2c-0.2-2-1.9-3.6-3.9-3.6h-11.8
			v-10.9C462.9,166,450.3,150.8,434.9,150.8z M413.6,184.6c0-14.3,9-26,20.2-26h1.1c11.1,0,20.2,11.7,20.2,26v10.9h-41.4V184.6z
			 M477.6,272.7l1.1,12h-88.9l1.2-12H477.6z M471.1,203.3l5.8,61.5h-85l6.1-61.5h7.8v5.8c0,2.2,1.8,3.9,3.9,3.9
			c2.2,0,3.9-1.8,3.9-3.9v-5.8H455v5.8c0,2.2,1.8,3.9,3.9,3.9c2.2,0,3.9-1.8,3.9-3.9v-5.8H471.1z"/>
		<path id="XMLID_221_" fill="#414042" d="M727.4,361.8h-70.8c-2.3,0-4.1,1.8-4.1,4.1v7.4c0,0.1-0.1,0.1-0.1,0.2l-14.6,37l0,0l0,0.1
			c-0.1,0.2-0.1,0.4-0.2,0.6c0,0.1,0,0.1,0,0.2c0,0.2-0.1,0.5-0.1,0.7c0,0,0,0,0,0v68.8c0,2.3,1.8,4.1,4.1,4.1h100.8
			c2.3,0,4.1-1.8,4.1-4.1V412c0,0,0,0,0,0c0-0.2,0-0.5-0.1-0.7c0-0.1,0-0.1,0-0.2c0-0.2-0.1-0.4-0.2-0.6l0-0.1l0,0l-14.6-37
			c0-0.1-0.1-0.1-0.1-0.2v-7.4C731.5,363.6,729.7,361.8,727.4,361.8z M660.7,369.9h62.6v0.9h-62.6V369.9z M696.1,407.9V379h11.6
			l4.7,28.9H696.1z M712.1,416.1c-1.4,2.6-4.3,4.4-7.5,4.4s-6-1.8-7.5-4.4H712.1z M671.5,407.9l3.9-28.9H688v28.9H671.5z
			 M686.9,416.1c-1.4,2.6-4.3,4.4-7.5,4.4c-3.2,0-6-1.8-7.5-4.4H686.9z M659.1,379h8.1l-3.9,28.9h-15.6L659.1,379z M661.7,416.1
			c-1.4,2.6-4.3,4.4-7.5,4.4c-3.2,0-6-1.8-7.5-4.4H661.7z M699.5,476.7h-14.9v-33.4h14.9V476.7z M738.4,476.7h-30.7v-37.5
			c0-2.3-1.8-4.1-4.1-4.1h-23.1c-2.3,0-4.1,1.8-4.1,4.1v37.5h-30.7v-50.4c2.5,1.5,5.4,2.4,8.5,2.4c5,0,9.5-2.2,12.6-5.8
			c3.1,3.5,7.6,5.8,12.6,5.8s9.5-2.2,12.6-5.8c3.1,3.5,7.6,5.8,12.6,5.8c5,0,9.5-2.2,12.6-5.8c3.1,3.5,7.6,5.8,12.6,5.8
			c3.1,0,6-0.9,8.5-2.4V476.7z M729.9,420.5c-3.2,0-6-1.8-7.5-4.4h15C735.9,418.7,733.1,420.5,729.9,420.5z M736.5,407.9h-15.7
			L716,379h9.1L736.5,407.9z"/>
		<path id="XMLID_214_" fill="#414042" d="M901.7,386.7v30.6c0,2.3,1.8,4.1,4.1,4.1h0.4v57.7c0,2.3,1.8,4.1,4.1,4.1h88.6
			c2.3,0,4.1-1.8,4.1-4.1v-57.7h0.4c2.3,0,4.1-1.8,4.1-4.1v-30.6c0-2.3-1.8-4.1-4.1-4.1h-18.2c2.4-0.9,4.4-2.1,5.9-3.5
			c2.1-2,3.2-4.4,3.3-7c0.1-4.7-2.4-6.7-4-7.6c-3-1.6-8.4-2.5-23.5,5.5c-3,1.6-5.9,3.3-8.2,4.7c-0.9-0.7-2-1.1-3.3-1.1
			c-1.5,0-2.9,0.6-3.9,1.6c-2.5-1.6-5.7-3.5-9.2-5.3c-15.1-8-20.5-7.2-23.5-5.5c-1.5,0.8-4.1,2.9-4,7.6c0.1,2.6,1.2,5,3.3,7
			c1.5,1.4,3.6,2.6,5.9,3.5h-18.2C903.5,382.6,901.7,384.4,901.7,386.7z M994.8,475h-80.4v-53.1h80.4V475z M985.6,371.5
			c0.2,0,0.4,0,0.6,0.1c0,0.1,0,0.2,0,0.3c0,0.2,0,0.6-0.7,1.2c-2.4,2.3-8.6,3.7-15.4,4.4C977,373.9,982.9,371.5,985.6,371.5z
			 M923.7,373.1c-0.7-0.6-0.7-1-0.7-1.2c0-0.1,0-0.2,0-0.3c2.3-0.4,8.7,2,16.1,6C932.3,376.8,926.1,375.4,923.7,373.1z M909.9,390.8
			h89.5v22.5h-89.5V390.8z"/>
		<g id="XMLID_5_">
			<path id="XMLID_143_" fill="#414042" d="M218.6,674.3c2.3,0,4.1-1.8,4.1-4.1v-65.5c0-2.3-1.8-4.1-4.1-4.1H115.3
				c-2.3,0-4.1,1.8-4.1,4.1v65.5c0,2.3,1.8,4.1,4.1,4.1H218.6z M119.4,608.7h95.2v10.4h-95.2V608.7z M119.4,637.4h95.2v28.7h-95.2
				V637.4z"/>
			<path id="XMLID_82_" fill="#414042" d="M193.5,657.4c1.3,1.2,3.1,2,5,2c4,0,7.3-3.3,7.3-7.3c0-4-3.3-7.3-7.3-7.3
				c-1.9,0-3.7,0.8-5,2c-1.3-1.2-3.1-2-5-2c-4,0-7.3,3.3-7.3,7.3c0,4,3.3,7.3,7.3,7.3C190.4,659.4,192.2,658.6,193.5,657.4z"/>
		</g>
		<path id="XMLID_140_" fill="#414042" d="M391.7,693.6h75.7c2.3,0,4.1-1.8,4.1-4.1v-50.6l18.6-10.6c1.9-1.1,2.6-3.4,1.6-5.3
			L471,580.8c0-0.1-0.1-0.1-0.1-0.2c-0.1-0.1-0.1-0.3-0.2-0.4c-0.1-0.1-0.2-0.2-0.2-0.3c-0.1-0.1-0.2-0.2-0.3-0.3
			c-0.1-0.1-0.2-0.2-0.3-0.3c-0.1-0.1-0.2-0.2-0.3-0.2c-0.1-0.1-0.2-0.1-0.3-0.2c-0.1-0.1-0.2-0.1-0.4-0.2c-0.1,0-0.3-0.1-0.4-0.1
			c-0.1,0-0.2-0.1-0.4-0.1c-0.2,0-0.3,0-0.5,0c-0.1,0-0.2,0-0.2,0h-15.9c-1.8,0-3.3,1.1-3.9,2.8c-2.5,7.8-9.8,13.1-18,13.1
			c-8.2,0-15.5-5.3-18-13.1c-0.5-1.7-2.1-2.8-3.9-2.8h-15.9c-0.1,0-0.2,0-0.2,0c-0.2,0-0.3,0-0.5,0c-0.1,0-0.2,0.1-0.4,0.1
			c-0.1,0-0.3,0.1-0.4,0.1c-0.1,0-0.2,0.1-0.4,0.2c-0.1,0.1-0.2,0.1-0.3,0.2c-0.1,0.1-0.2,0.1-0.3,0.2c-0.1,0.1-0.2,0.2-0.3,0.3
			c-0.1,0.1-0.2,0.2-0.3,0.3c-0.1,0.1-0.2,0.2-0.3,0.3c-0.1,0.1-0.2,0.2-0.2,0.4c0,0.1-0.1,0.1-0.1,0.2l-20.6,42.1
			c-0.9,1.9-0.2,4.3,1.6,5.3l18.6,10.6v50.6C387.6,691.8,389.4,693.6,391.7,693.6z M471.4,600.2l11.2,22.9l-11.2,6.4V600.2z
			 M395.7,586.7h9.1c4.4,9.6,13.9,15.9,24.7,15.9c10.8,0,20.3-6.3,24.7-15.9h9.1v98.8h-67.5V586.7z M376.4,623.1l11.2-22.9v29.3
			L376.4,623.1z"/>
		<path id="XMLID_117_" fill="#414042" d="M691.2,613c-1.4,0.4-2.4,1.5-2.8,2.8c-0.3,0.5-0.4,1.1-0.4,1.8V629l-68.5,42.6
			c-4.8,3-6.9,8.6-5.4,14c1.5,5.4,6.4,9,12,9h132c5.6,0,10.4-3.6,12-9c1.5-5.4-0.6-11-5.4-14L696.1,629v-9.1
			c4.1-1.8,7.5-4.8,9.8-8.8c2.7-4.8,3.4-10.4,1.9-15.7c-3-11-14.5-17.5-25.5-14.5c-2.2,0.6-3.4,2.8-2.8,5c0.6,2.2,2.8,3.4,5,2.8
			c6.7-1.8,13.6,2.1,15.4,8.8c0.9,3.2,0.5,6.6-1.2,9.5C697.1,610.1,694.4,612.1,691.2,613z M760.3,678.5c2.5,1.6,2.1,4.1,1.9,4.8
			c-0.2,0.7-1.1,3.1-4.1,3.1h-132c-3,0-3.9-2.4-4.1-3.1c-0.2-0.7-0.7-3.2,1.9-4.8l68.3-42.5L760.3,678.5z"/>
		<path id="XMLID_180_" fill="#414042" d="M953.8,707.4c0,0,0.1,0,0.1,0.1c0.1,0,0.1,0,0.2,0.1c0.2,0.1,0.4,0.2,0.6,0.2
			c0,0,0.1,0,0.1,0c0.2,0,0.5,0.1,0.7,0.1c0.2,0,0.5,0,0.7-0.1c0,0,0.1,0,0.1,0c0.2,0,0.4-0.1,0.6-0.2c0.1,0,0.1,0,0.1-0.1
			c0.1,0,0.1,0,0.2-0.1l58.6-29.1c1.4-0.7,2.3-2.1,2.3-3.7v-74.6c0-0.1,0-0.1,0-0.2c0-0.1,0-0.2,0-0.2c0-0.2-0.1-0.5-0.1-0.7
			c0,0,0,0,0-0.1c-0.1-0.2-0.2-0.4-0.3-0.6c0,0,0-0.1,0-0.1c0,0,0-0.1-0.1-0.1c-0.1-0.2-0.2-0.4-0.4-0.5c0,0,0,0,0-0.1
			c-0.1-0.2-0.3-0.3-0.5-0.5c-0.1,0-0.1-0.1-0.2-0.1c-0.1-0.1-0.3-0.2-0.4-0.3c-0.1,0-0.1-0.1-0.2-0.1c0,0,0,0-0.1,0l-58.6-29.1
			c-1.1-0.6-2.5-0.6-3.6,0l-58.6,29.1c0,0,0,0-0.1,0c-0.1,0-0.1,0.1-0.2,0.1c-0.2,0.1-0.3,0.2-0.4,0.3c-0.1,0-0.1,0.1-0.2,0.1
			c-0.2,0.2-0.3,0.3-0.5,0.5c0,0,0,0,0,0.1c-0.1,0.2-0.3,0.4-0.4,0.5c0,0,0,0.1-0.1,0.1c0,0,0,0.1,0,0.1c-0.1,0.2-0.2,0.4-0.3,0.6
			c0,0,0,0,0,0.1c-0.1,0.2-0.1,0.4-0.1,0.7c0,0.1,0,0.2,0,0.2c0,0.1,0,0.1,0,0.2v74.6c0,1.5,0.9,3,2.3,3.7L953.8,707.4z
			 M1010.2,672.2l-50.5,25v-63.8l17.1-9l0,14.8c0,0.9,0.5,1.8,1.3,2.3c0.4,0.3,0.9,0.4,1.4,0.4c0.4,0,0.8-0.1,1.2-0.3l15.1-7.3
			c0.9-0.5,1.5-1.4,1.5-2.4l0-18.3l12.8-6.7V672.2z M982.3,621.5l9.7-5.1l0,13.7l-9.7,4.7L982.3,621.5z M955.7,575.6l49.6,24.6
			l-12.7,6.7l-48.9-25.3L955.7,575.6z M937.6,584.5l49.1,25.4l-8.7,4.6L928.7,589L937.6,584.5z M922.7,592l49.5,25.7l-16.6,8.7
			L906,600.2L922.7,592z M901.1,606.9l50.5,26.5v63.8l-50.5-25V606.9z"/>
		<g id="XMLID_36_">
			<path id="XMLID_114_" fill="#414042" d="M1279.3,605.9V597c0-13.4-10.9-24.2-24.2-24.2h-78c-13.4,0-24.2,10.9-24.2,24.2v8.9
				c0,13.4,10.9,24.2,24.2,24.2h64.2v28.6l-4.5-1.7c-6.3-2.4-13.4,0.8-15.8,7.1c-1.2,3.1-1.1,6.4,0.3,9.4c1.3,3,3.8,5.3,6.8,6.4
				l13.9,5.3c2.6,9.8,11.6,16.9,21.9,16.9h13.9c12.5,0,22.6-10.1,22.6-22.6v-20c0-8.9-7.3-16.2-16.2-16.2h-18.5v-15.6
				C1273.9,623.6,1279.3,615.1,1279.3,605.9z M1284.2,651.4c4.4,0,8,3.6,8,8v20c0,8-6.5,14.5-14.5,14.5h-13.9
				c-7.1,0-13.3-5.3-14.3-12.3c-0.2-1.5-1.2-2.7-2.6-3.2l-16-6.1c-1-0.4-1.8-1.1-2.3-2.1c-0.4-1-0.5-2.1-0.1-3.1
				c0.6-1.6,2.2-2.6,3.8-2.6c0.5,0,1,0.1,1.4,0.3l10,3.8c1.2,0.5,2.7,0.3,3.8-0.5s1.8-2,1.8-3.4V615c0-2.3,1.8-4.1,4.1-4.1
				c2.3,0,4.1,1.8,4.1,4.1v32.4c0,2.3,1.8,4.1,4.1,4.1H1284.2z M1253.4,602.7c-6.8,0-12.2,5.5-12.2,12.2v7H1177
				c-8.9,0-16.1-7.2-16.1-16.1V597c0-8.9,7.2-16.1,16.1-16.1h78c8.9,0,16.1,7.2,16.1,16.1v8.9c0,4.6-2,9-5.4,12v-3
				C1265.7,608.2,1260.2,602.7,1253.4,602.7z"/>
			<path id="XMLID_102_" fill="#414042" d="M1202.6,595.2v-0.9c0-3.8-1.7-5.7-5.7-5.7h-5.8v24.6h6.1c3.9,0,5.9-2,5.9-5.8v-2
				c0-2.6-0.8-4.5-2.9-5.3C1201.9,599.3,1202.6,597.7,1202.6,595.2z M1194.9,592.1h1.9c1.4,0,2,0.8,2,2.5v1.4c0,2-0.9,2.6-2.3,2.6
				h-1.5V592.1z M1199.2,607.3c0,1.8-0.7,2.4-2,2.4h-2.2v-7.5h1.7c1.8,0,2.5,0.7,2.5,3V607.3z"/>
			<path id="XMLID_13_" fill="#414042" d="M1208.7,588.6v18.7c0,3.9,2,6.2,5.8,6.2c3.8,0,5.8-2.2,5.8-6.2v-18.7h-3.7v19
				c0,1.8-0.8,2.4-2,2.4c-1.2,0-2-0.6-2-2.4v-19H1208.7z"/>
			<polygon id="XMLID_30_" fill="#414042" points="1233.8,613.2 1233.8,605.1 1238.7,588.6 1235,588.6 1232.1,599.8 1229.1,588.6 
				1225.1,588.6 1230,605.1 1230,613.2 			"/>
		</g>
		<g id="XMLID_10_">
			<path id="XMLID_31_" fill="#414042" d="M158.3,852.2c0.4,0.1,0.8,0.2,1.1,0.2c0.9,0,1.7-0.3,2.4-0.8c1-0.8,1.6-2,1.6-3.3v-38.7
				c0-2.3-1.8-4.1-4.1-4.1c-2.3,0-4.1,1.8-4.1,4.1v33.2l-20.6-6c-2.2-0.6-4.4,0.6-5.1,2.8c-0.6,2.2,0.6,4.4,2.8,5.1L158.3,852.2z"/>
			<path id="XMLID_32_" fill="#414042" d="M183.1,882.8H203v-6.3h-13c-0.1-0.3-0.1-0.6-0.1-0.9c0-7.2,13.7-12.3,13.7-26.1
				c0-7-3.5-11-10.3-11c-6.8,0-10.3,4-10.3,11v4.3h6.5v-4.7c0-3.1,1.4-4.3,3.6-4.3s3.6,1.1,3.6,5c0,12.6-13.6,14.8-13.6,27.6V882.8z
				"/>
			<path id="XMLID_93_" fill="#414042" d="M218.8,839l-12.5,29.6v6.3h13.3v7.9h6.8v-7.9h3.3v-6.3h-3.3V839H218.8z M219.5,868.6h-6.9
				l6.9-16.5V868.6z"/>
			<path id="XMLID_12_" fill="#414042" d="M159.5,799.9c21.5,0,40.9,13.5,48.4,33.6c0.8,2.1,3.1,3.2,5.2,2.4
				c2.1-0.8,3.2-3.1,2.4-5.2c-8.7-23.3-31.2-38.9-56.1-38.9c-33,0-59.8,26.8-59.8,59.8s26.8,59.8,59.8,59.8c15.3,0,29.9-5.8,41-16.3
				c1.6-1.5,1.7-4.1,0.2-5.8c-1.5-1.6-4.1-1.7-5.8-0.2c-9.6,9.1-22.2,14.1-35.4,14.1c-28.5,0-51.7-23.2-51.7-51.7
				S131,799.9,159.5,799.9z"/>
		</g>
		<path id="XMLID_120_" fill="#414042" d="M369.9,886.8c0,1.5,0.9,3,2.3,3.7l55.5,27.5c0,0,0.1,0,0.2,0.1c0,0,0.1,0,0.2,0.1
			c0.2,0.1,0.4,0.2,0.6,0.2c0,0,0.1,0,0.1,0c0.2,0,0.5,0.1,0.7,0.1c0.2,0,0.5,0,0.7-0.1c0,0,0.1,0,0.1,0c0.2,0,0.4-0.1,0.6-0.2
			c0.1,0,0.1,0,0.2-0.1c0,0,0.1,0,0.2-0.1l55.5-27.5c1.4-0.7,2.3-2.1,2.3-3.7v-24.6l18.3-9.7c1-0.5,1.7-1.5,2-2.5
			c0.3-1.1,0.1-2.3-0.5-3.2L488.5,814c0-0.1-0.1-0.1-0.2-0.2c-0.1-0.1-0.1-0.2-0.2-0.3c0,0-0.1-0.1-0.1-0.1
			c-0.1-0.1-0.2-0.2-0.3-0.2c-0.1-0.1-0.1-0.1-0.2-0.2c0,0-0.1-0.1-0.1-0.1c-0.1-0.1-0.2-0.1-0.3-0.2c-0.1-0.1-0.2-0.1-0.3-0.2
			c0,0,0,0-0.1,0L431.3,785c-1.1-0.6-2.5-0.6-3.6,0l-55.5,27.5c0,0,0,0-0.1,0c-0.1,0-0.2,0.1-0.3,0.2c-0.1,0.1-0.2,0.1-0.3,0.2
			c0,0-0.1,0.1-0.1,0.1c-0.1,0.1-0.1,0.1-0.2,0.2c-0.1,0.1-0.2,0.2-0.2,0.2c0,0-0.1,0.1-0.1,0.1c-0.1,0.1-0.1,0.2-0.2,0.3
			c-0.1,0.1-0.1,0.1-0.2,0.2l-20.5,32.8c-0.6,1-0.8,2.1-0.5,3.2c0.3,1.1,1,2,2,2.5l18.3,9.7c0,0,0,0,0,0V886.8z M425.4,907.8
			l-47.4-23.5v-17.7l28.2,15c0.6,0.3,1.3,0.5,1.9,0.5c1.3,0,2.6-0.7,3.4-1.9l13.8-21.2V907.8z M480.9,884.3l-47.4,23.5V859
			l13.8,21.2c0.8,1.2,2.1,1.9,3.4,1.9c0.6,0,1.3-0.2,1.9-0.5l28.2-15V884.3z M499.7,847.4l-47.5,25.2l-16.8-25.8l48.2-25.3
			L499.7,847.4z M429.5,793.2l46.6,23.1l-46.6,24.5l-46.6-24.5L429.5,793.2z M359.3,847.4l16.1-25.9l48.2,25.3l-16.8,25.8
			L359.3,847.4z"/>
		<g id="XMLID_8_">
			<path id="XMLID_97_" fill="#414042" d="M632.9,863.1l4.9,6.9l0.2,8.5c0,1.3,0.6,2.4,1.6,3.2l6.8,5.1l2.8,8
				c0.4,1.2,1.3,2.1,2.5,2.5l8,2.8l5.1,6.8c0.8,1,1.9,1.6,3.2,1.6l8.5,0.2l6.9,4.9c0.7,0.5,1.5,0.7,2.3,0.7c0.4,0,0.8-0.1,1.2-0.2
				l8.1-2.5l8.1,2.5c1.2,0.4,2.5,0.2,3.5-0.6l6.9-4.9l8.5-0.2c1.3,0,2.4-0.6,3.2-1.6l5.1-6.8l8-2.8c1.2-0.4,2.1-1.3,2.5-2.5l2.8-8
				l6.8-5.1c1-0.8,1.6-1.9,1.6-3.2l0.2-8.5l4.9-6.9c0.7-1,0.9-2.3,0.6-3.5l-2.5-8.1l2.5-8.1c0.4-1.2,0.2-2.5-0.6-3.5l-4.9-6.9
				l-0.2-8.5c0-1.3-0.6-2.4-1.6-3.2l-6.8-5.1l-2.8-8c-0.4-1.2-1.3-2.1-2.5-2.5l-8-2.8l-5.1-6.8c-0.8-1-1.9-1.6-3.2-1.6l-8.5-0.2
				l-6.9-4.9c-1-0.7-2.3-0.9-3.5-0.6l-8.1,2.5l-8.1-2.5c-1.2-0.4-2.5-0.2-3.5,0.6l-6.9,4.9l-8.5,0.2c-1.3,0-2.4,0.6-3.2,1.6
				l-5.1,6.8l-8,2.8c-1.2,0.4-2.1,1.3-2.5,2.5l-2.8,8l-6.8,5.1c-1,0.8-1.6,1.9-1.6,3.2l-0.2,8.5l-4.9,6.9c-0.7,1-0.9,2.3-0.6,3.5
				l2.5,8.1l-2.5,8.1C632,860.8,632.2,862.1,632.9,863.1z M645.2,836.6c0.5-0.7,0.7-1.5,0.7-2.3l0.1-7.7l6.2-4.7
				c0.6-0.5,1.1-1.2,1.4-1.9l2.5-7.3l7.3-2.5c0.8-0.3,1.4-0.8,1.9-1.4l4.7-6.2l7.7-0.1c0.8,0,1.6-0.3,2.3-0.7l6.3-4.4l7.4,2.3
				c0.8,0.2,1.6,0.2,2.4,0l7.4-2.3l6.3,4.4c0.7,0.5,1.5,0.7,2.3,0.7l7.7,0.1l4.7,6.2c0.5,0.6,1.2,1.1,1.9,1.4l7.3,2.5l2.5,7.3
				c0.3,0.8,0.8,1.4,1.4,1.9l6.2,4.7l0.1,7.7c0,0.8,0.3,1.6,0.7,2.3l4.4,6.3l-2.3,7.4c-0.2,0.8-0.2,1.6,0,2.4l2.3,7.4l-4.4,6.3
				c-0.5,0.7-0.7,1.5-0.7,2.3l-0.1,7.7l-6.2,4.7c-0.6,0.5-1.1,1.2-1.4,1.9l-2.5,7.3l-7.3,2.5c-0.8,0.3-1.4,0.8-1.9,1.4l-4.7,6.2
				l-7.7,0.1c-0.8,0-1.6,0.3-2.3,0.7l-6.3,4.4l-7.4-2.3c-0.8-0.2-1.6-0.2-2.4,0l-7.4,2.3l-6.3-4.4c-0.7-0.5-1.5-0.7-2.3-0.7
				l-7.7-0.1l-4.7-6.2c-0.5-0.6-1.2-1.1-1.9-1.4l-7.3-2.5l-2.5-7.3c-0.3-0.8-0.8-1.4-1.4-1.9l-6.2-4.7l-0.1-7.7
				c0-0.8-0.3-1.6-0.7-2.3l-4.4-6.3l2.3-7.4c0.2-0.8,0.2-1.6,0-2.4l-2.3-7.4L645.2,836.6z"/>
			<path id="XMLID_20_" fill="#414042" d="M658.1,857.9v2.2c0,5.7,2.9,9,8.4,9c5.5,0,8.4-3.3,8.4-9c0-10.2-11-11.6-11-18.9
				c0-2.6,1-3.5,2.8-3.5c1.8,0,2.8,1,2.8,3.5v1.5h5.3v-1.1c0-5.7-2.8-9-8.3-9c-5.5,0-8.3,3.3-8.3,9c0,10.2,11,11.6,11,18.9
				c0,2.6-1.1,3.5-2.9,3.5s-2.9-0.9-2.9-3.5v-2.6H658.1z"/>
			<path id="XMLID_87_" fill="#414042" d="M689.6,862.2l1,6.5h5.7l-5.7-35.7h-8.2l-5.7,35.7h5.2l1-6.5H689.6z M686.1,839.2l2.7,18.1
				h-5.4L686.1,839.2z"/>
			<polygon id="XMLID_11_" fill="#414042" points="698.9,832.9 698.9,868.6 713.7,868.6 713.7,863.5 704.5,863.5 704.5,832.9 			"/>
			<polygon id="XMLID_14_" fill="#414042" points="731.5,838 731.5,832.9 716.2,832.9 716.2,868.6 731.5,868.6 731.5,863.5 
				721.8,863.5 721.8,853.1 729.5,853.1 729.5,848 721.8,848 721.8,838 			"/>
		</g>
		<path id="XMLID_104_" fill="#414042" d="M1166.4,919.9c0.8,0.9,1.9,1.3,3,1.3h95.5c1.2,0,2.3-0.5,3-1.3c0.8-0.9,1.1-2,1-3.2
			c-3.3-31.2-26.3-63.6-31.7-70.8c4.3-8.4,13.6-31.4-1.4-49.3v-10.7c0-2.3-1.8-4.1-4.1-4.1c-2.3,0-4.1,1.8-4.1,4.1v13.5
			c-0.7,3.1-3.1,9.7-10.4,9.7c-8.5,0-10.3-9.1-10.6-10.9v-12.2c0-2.3-1.8-4.1-4.1-4.1c-2.3,0-4.1,1.8-4.1,4.1v11
			c-13.6,16.4-7.8,37.3-1.5,48.8c-5.1,6.8-28.5,39.5-31.8,71C1165.2,917.9,1165.6,919,1166.4,919.9z M1201.4,807.4
			c2.8,5.1,7.7,9.8,16,9.8c8.1,0,13.1-4.6,15.9-9.7c6.5,13.7-0.7,29.9-3.6,35.4H1205C1202,837.6,1194.2,821.6,1201.4,807.4z
			 M1203.4,851.1h27.6c5,6.8,24.7,34.9,29.3,62h-86.2C1178.7,886,1198.3,857.9,1203.4,851.1z"/>
		<g id="XMLID_29_">
			<path id="XMLID_45_" fill="#414042" d="M408,492.8c1,0,2.1-0.4,2.9-1.2l60.6-60.7c2.9-2.9,4.8-6.5,5.5-10.5l4.5-25.4
				c0.9-5.1-0.8-10.3-4.4-13.9c-3.7-3.6-8.9-5.2-13.9-4.1l-24.5,4.9c-4,0.8-7.6,2.7-10.5,5.6l-60.5,60.6c-0.8,0.8-1.2,1.8-1.2,2.9
				c0,1.1,0.4,2.1,1.2,2.9l37.7,37.6C405.9,492.4,406.9,492.8,408,492.8z M433.7,393.4c1.7-1.7,3.9-2.9,6.3-3.4l24.5-4.9
				c2.4-0.5,4.9,0.2,6.6,2c1.8,1.7,2.6,4.1,2.1,6.6l-4.5,25.4c-0.4,2.3-1.5,4.5-3.2,6.1L408,482.9l-31.9-31.8L433.7,393.4z"/>
			<path id="XMLID_48_" fill="#414042" d="M452.7,418.7c3.3,0,6.4-1.3,8.7-3.6c4.8-4.8,4.8-12.6,0-17.5c-2.3-2.3-5.4-3.6-8.7-3.6
				c0,0,0,0,0,0c-3.3,0-6.4,1.3-8.7,3.6c-4.8,4.8-4.8,12.6,0,17.5C446.3,417.4,449.4,418.7,452.7,418.7
				C452.6,418.7,452.7,418.7,452.7,418.7z M449.7,403.4c0.8-0.8,1.8-1.2,3-1.2c0,0,0,0,0,0c1.1,0,2.2,0.4,3,1.2
				c1.6,1.6,1.6,4.3,0,5.9c-0.8,0.8-1.8,1.2-3,1.2c0,0,0,0,0,0c-1.1,0-2.2-0.4-3-1.2C448.1,407.7,448.1,405,449.7,403.4z"/>
			<path id="XMLID_15_" fill="#414042" d="M411.6,434.1l1,1l3.6-3.6l-0.8-0.8c-3.2-3.2-6.7-3.9-9.9-1.8l-1.8-1.8l-3.1,3.1l1.8,1.8
				c-2.1,3.2-1.3,6.6,1.9,9.8c6.8,6.8,14.4-0.3,19.3,4.6c1.7,1.7,1.6,3.1,0.4,4.3c-1.2,1.2-2.6,1.3-4.3-0.4l-1.9-1.9l-3.6,3.6
				l1.6,1.6c3.2,3.2,6.7,4,9.9,1.8l1.7,1.7l3.1-3.1l-1.7-1.7c2.1-3.2,1.4-6.7-1.8-9.9c-6.8-6.8-14.4,0.3-19.3-4.6
				c-1.7-1.7-1.7-3-0.5-4.2C408.6,432.4,409.9,432.3,411.6,434.1z"/>
		</g>
		<g id="XMLID_46_">
			<path id="XMLID_38_" fill="#414042" d="M988,830.7c2.3,0,4.1-1.8,4.1-4.1v-19.5c0-2.3-1.8-4.1-4.1-4.1h-59.9
				c-2.3,0-4.1,1.8-4.1,4.1v19.5c0,2.3,1.8,4.1,4.1,4.1H988z M932.1,811.2h51.7v11.4h-51.7V811.2z"/>
			<path id="XMLID_55_" fill="#414042" d="M986.6,919.7c12.9,0,23.3-10.5,23.3-23.3V809c0-12.9-10.5-23.3-23.3-23.3h-57.2
				c-12.9,0-23.3,10.5-23.3,23.3v87.4c0,12.9,10.5,23.3,23.3,23.3H986.6z M914.2,896.3V809c0-8.4,6.8-15.2,15.2-15.2h57.2
				c8.4,0,15.2,6.8,15.2,15.2v87.4c0,8.4-6.8,15.2-15.2,15.2h-57.2C921,911.5,914.2,904.7,914.2,896.3z"/>
			<path id="XMLID_18_" fill="#414042" d="M940.1,856.5c1.4,0,2.6-1.1,2.6-2.6v-9.5c0-1.4-1.1-2.6-2.6-2.6h-9.5
				c-1.4,0-2.6,1.1-2.6,2.6v9.5c0,1.4,1.1,2.6,2.6,2.6H940.1z"/>
			<path id="XMLID_24_" fill="#414042" d="M962.7,856.5c1.4,0,2.6-1.1,2.6-2.6v-9.5c0-1.4-1.1-2.6-2.6-2.6h-9.5
				c-1.4,0-2.6,1.1-2.6,2.6v9.5c0,1.4,1.1,2.6,2.6,2.6H962.7z"/>
			<path id="XMLID_33_" fill="#414042" d="M985.4,856.5c1.4,0,2.6-1.1,2.6-2.6v-9.5c0-1.4-1.1-2.6-2.6-2.6h-9.5
				c-1.4,0-2.6,1.1-2.6,2.6v9.5c0,1.4,1.1,2.6,2.6,2.6H985.4z"/>
			<path id="XMLID_49_" fill="#414042" d="M940.1,879c1.4,0,2.6-1.1,2.6-2.6V867c0-1.4-1.1-2.6-2.6-2.6h-9.5c-1.4,0-2.6,1.1-2.6,2.6
				v9.5c0,1.4,1.1,2.6,2.6,2.6H940.1z"/>
			<path id="XMLID_50_" fill="#414042" d="M962.7,879c1.4,0,2.6-1.1,2.6-2.6V867c0-1.4-1.1-2.6-2.6-2.6h-9.5c-1.4,0-2.6,1.1-2.6,2.6
				v9.5c0,1.4,1.1,2.6,2.6,2.6H962.7z"/>
			<path id="XMLID_52_" fill="#414042" d="M985.4,879c1.4,0,2.6-1.1,2.6-2.6V867c0-1.4-1.1-2.6-2.6-2.6h-9.5c-1.4,0-2.6,1.1-2.6,2.6
				v9.5c0,1.4,1.1,2.6,2.6,2.6H985.4z"/>
			<path id="XMLID_53_" fill="#414042" d="M940.1,901.5c1.4,0,2.6-1.1,2.6-2.6v-9.5c0-1.4-1.1-2.6-2.6-2.6h-9.5
				c-1.4,0-2.6,1.1-2.6,2.6v9.5c0,1.4,1.1,2.6,2.6,2.6H940.1z"/>
			<path id="XMLID_56_" fill="#414042" d="M962.7,901.5c1.4,0,2.6-1.1,2.6-2.6v-9.5c0-1.4-1.1-2.6-2.6-2.6h-9.5
				c-1.4,0-2.6,1.1-2.6,2.6v9.5c0,1.4,1.1,2.6,2.6,2.6H962.7z"/>
			<path id="XMLID_57_" fill="#414042" d="M985.4,901.5c1.4,0,2.6-1.1,2.6-2.6v-9.5c0-1.4-1.1-2.6-2.6-2.6h-9.5
				c-1.4,0-2.6,1.1-2.6,2.6v9.5c0,1.4,1.1,2.6,2.6,2.6H985.4z"/>
		</g>
	</g>
	<g id="XMLID_76_">
		<path id="XMLID_58_" fill="#414042" d="M482.3,83.5v2.1c0,5.6,2.8,8.8,8.2,8.8s8.2-3.2,8.2-8.8c0-10-10.7-11.3-10.7-18.5
			c0-2.5,1-3.4,2.7-3.4c1.7,0,2.7,0.9,2.7,3.4v1.4h5.2v-1.1c0-5.6-2.7-8.8-8.1-8.8s-8.1,3.2-8.1,8.8c0,10,10.7,11.3,10.7,18.5
			c0,2.5-1.1,3.4-2.8,3.4c-1.7,0-2.8-0.9-2.8-3.4v-2.5H482.3z"/>
		<polygon id="XMLID_60_" fill="#414042" points="518.7,59.2 518.7,94 524.2,94 524.2,79.1 530.4,79.1 530.4,94 536,94 536,59.2 
			530.4,59.2 530.4,74.1 524.2,74.1 524.2,59.2 		"/>
		<path id="XMLID_65_" fill="#414042" d="M573.2,85.7V67.5c0-5.6-2.9-8.8-8.3-8.8c-5.4,0-8.3,3.2-8.3,8.8v18.1
			c0,5.6,2.9,8.8,8.3,8.8C570.2,94.4,573.2,91.2,573.2,85.7z M562,86V67.2c0-2.5,1.1-3.4,2.8-3.4s2.8,0.9,2.8,3.4V86
			c0,2.5-1.1,3.4-2.8,3.4S562,88.5,562,86z"/>
		<path id="XMLID_77_" fill="#414042" d="M601.7,80.9c5.5,0,8.2-3,8.2-8.6v-4.5c0-5.6-2.7-8.6-8.2-8.6h-8.1V94h5.5V80.9H601.7z
			 M599.1,64.1h2.6c1.7,0,2.7,0.8,2.7,3.3v5.2c0,2.5-0.9,3.3-2.7,3.3h-2.6V64.1z"/>
		<rect id="XMLID_61_" x="629.7" y="59.2" fill="#414042" width="5.5" height="34.9"/>
		<polygon id="XMLID_62_" fill="#414042" points="667.8,94 673.4,94 673.4,59.2 668.5,59.2 668.5,80 662.9,59.2 656,59.2 656,94 
			661,94 661,68.8 		"/>
		<path id="XMLID_69_" fill="#414042" d="M710.2,70.9v-3.4c0-5.6-2.8-8.8-8.2-8.8c-5.4,0-8.2,3.2-8.2,8.8v18.1
			c0,5.6,2.8,8.8,8.2,8.8c5.4,0,8.2-3.2,8.2-8.8V74.6h-7.7v5h2.5V86c0,2.5-1.1,3.4-2.8,3.4s-2.8-0.9-2.8-3.4V67.2
			c0-2.5,1.1-3.4,2.8-3.4s2.8,0.9,2.8,3.4v3.7H710.2z"/>
		<rect id="XMLID_78_" x="755.4" y="59.2" fill="#414042" width="5.5" height="34.9"/>
		<path id="XMLID_80_" fill="#414042" d="M797.7,70.9v-3.4c0-5.6-2.8-8.8-8.2-8.8c-5.4,0-8.2,3.2-8.2,8.8v18.1
			c0,5.6,2.8,8.8,8.2,8.8c5.4,0,8.2-3.2,8.2-8.8V81h-5.2v5c0,2.5-1.1,3.4-2.8,3.4s-2.8-0.9-2.8-3.4V67.2c0-2.5,1.1-3.4,2.8-3.4
			s2.8,0.9,2.8,3.4v3.7H797.7z"/>
		<path id="XMLID_95_" fill="#414042" d="M834.2,85.7V67.5c0-5.6-2.9-8.8-8.3-8.8c-5.4,0-8.3,3.2-8.3,8.8v18.1
			c0,5.6,2.9,8.8,8.3,8.8C831.2,94.4,834.2,91.2,834.2,85.7z M823,86V67.2c0-2.5,1.1-3.4,2.8-3.4s2.8,0.9,2.8,3.4V86
			c0,2.5-1.1,3.4-2.8,3.4S823,88.5,823,86z"/>
		<polygon id="XMLID_85_" fill="#414042" points="866.4,94 872,94 872,59.2 867.1,59.2 867.1,80 861.5,59.2 854.6,59.2 854.6,94 
			859.5,94 859.5,68.8 		"/>
		<path id="XMLID_88_" fill="#414042" d="M892.1,83.5v2.1c0,5.6,2.8,8.8,8.2,8.8c5.4,0,8.2-3.2,8.2-8.8c0-10-10.7-11.3-10.7-18.5
			c0-2.5,1-3.4,2.7-3.4s2.7,0.9,2.7,3.4v1.4h5.2v-1.1c0-5.6-2.7-8.8-8.1-8.8s-8.1,3.2-8.1,8.8c0,10,10.7,11.3,10.7,18.5
			c0,2.5-1.1,3.4-2.8,3.4s-2.8-0.9-2.8-3.4v-2.5H892.1z"/>
	</g>
</g>
</svg>
